<?xml version="1.0" standalone="no"?>
<!DOCTYPE svg PUBLIC "-//W3C//DTD SVG 20010904//EN" "http://www.w3.org/TR/2001/REC-SVG-20010904/DTD/svg10.dtd">
  <svg version="1.0"
       xmlns="http://www.w3.org/2000/svg"
       width="270.000000pt"
       height="270.000000pt"
       viewBox="0 0 270.000000 270.000000"
       preserveAspectRatio="xMidYMid meet">
  <metadata>Created by potrace 1.11, written by Peter Selinger 2001-2013</metadata>
  <g transform="translate(0.000000,270.000000) scale(0.100000,-0.100000)"
     fill="#000000"
     stroke="none">
    <path d="M292 2677 c-18 -6 -42 -23 -54 -39 -20 -29 -21 -37 -19 -616 1 -572
    6 -836 15 -897 16 -105 57 -221 108 -310 40 -70 52 -89 58 -95 3 -3 24 -30 46
    -60 41 -55 145 -164 220 -231 52 -47 248 -193 283 -210 14 -8 28 -16 31 -19
    26 -27 320 -187 320 -173 0 4 5 2 11 -4 25 -25 162 38 374 170 403 251 677
    572 741 866 24 111 28 231 28 896 0 569 -2 643 -17 671 -33 63 47 59 -1081 60
    -660 0 -1043 -3 -1064 -9z"/>
  </g>
</svg>
